<svg xmlns="http://www.w3.org/2000/svg" viewBox="0 0 200 220" width="200" height="220">
<style>
  .b{animation:scratch2 .35s ease-in-out infinite alternate;transform-origin:100px 86px;transform-box:fill-box}
  .cb{animation:cbob 1.0s ease-in-out infinite alternate;transform-origin:80px 22px;transform-box:fill-box}
  @keyframes scratch2{0%{transform:rotate(-4deg)}100%{transform:rotate(4deg)}}
  @keyframes cbob{0%{transform:scale(.88)}100%{transform:scale(1.1)}}
</style>
<g class="cb">
  
  <ellipse cx="68" cy="25" rx="19" ry="17" fill="white" stroke="#ccc" stroke-width="1.5"/>
  <ellipse cx="92" cy="25" rx="19" ry="17" fill="white" stroke="#ccc" stroke-width="1.5"/>
  <ellipse cx="80" cy="18" rx="23" ry="17" fill="white" stroke="#ccc" stroke-width="1.5"/>
  
  
  <line x1="80" y1="1" x2="80" y2="-7" stroke="#FFD700" stroke-width="2.2" stroke-linecap="round"/>
  <line x1="89" y1="8" x2="96" y2="1" stroke="#FFD700" stroke-width="2" stroke-linecap="round"/>
  <line x1="70" y1="8" x2="63" y2="1" stroke="#FFD700" stroke-width="2" stroke-linecap="round"/>
  <line x1="97" y1="18" x2="105" y2="18" stroke="#FFD700" stroke-width="2" stroke-linecap="round"/>
  <line x1="63" y1="18" x2="55" y2="18" stroke="#FFD700" stroke-width="2" stroke-linecap="round"/>
  <ellipse cx="80" cy="18" rx="13" ry="14" fill="#FFF8A0" stroke="#DAA000" stroke-width="2.5"/>
  <rect x="74" y="29" width="13" height="3" rx="2" fill="#DAA000"/>
  <rect x="75" y="33" width="11" height="2" rx="2" fill="#DAA000"/>
  <ellipse cx="77" cy="17" rx="2" ry="4" fill="white" opacity="0.4"/>
  <circle cx="118" cy="52" r="3.5" fill="#ddd"/>
  <circle cx="124" cy="59" r="2.5" fill="#ddd"/>
</g>
<g class="b">
  
  <path d="M100,30
    C84,24 60,36 54,54
    C48,72 54,88 64,98
    C50,102 44,118 52,134
    C60,148 76,152 90,150
    C96,158 100,162 100,162
    C100,162 104,158 110,150
    C124,152 140,148 148,134
    C156,118 150,102 136,98
    C146,88 152,72 146,54
    C140,36 116,24 100,30 Z"
    fill="#F8C0A0" stroke="#D06040" stroke-width="2.5"/>
  <path d="M100,30C96,4494,5296,62" fill="none" stroke="#D06040" stroke-width="1.7" stroke-linecap="round" opacity="0.6"/>
  <path d="M100,30C104,44106,52104,62" fill="none" stroke="#D06040" stroke-width="1.7" stroke-linecap="round" opacity="0.6"/>
  <path d="M54,54C46,6848,8254,94" fill="none" stroke="#D06040" stroke-width="1.5" stroke-linecap="round" opacity="0.55"/>
  <path d="M146,54C154,68152,82146,94" fill="none" stroke="#D06040" stroke-width="1.5" stroke-linecap="round" opacity="0.55"/>
  <path d="M72,34C64,4662,5866,70" fill="none" stroke="#D06040" stroke-width="1.4" stroke-linecap="round" opacity="0.5"/>
  <path d="M128,34C136,46138,58134,70" fill="none" stroke="#D06040" stroke-width="1.4" stroke-linecap="round" opacity="0.5"/>
  <ellipse cx="100" cy="90" rx="28" ry="32" fill="#FAD0B0" opacity="0.3"/>
  
  <circle cx="84" cy="102" r="8" fill="white" stroke="#222" stroke-width="2"/>
  <circle cx="116" cy="102" r="8" fill="white" stroke="#222" stroke-width="2"/>
  <circle cx="85" cy="103" r="4" fill="#222"/>
  <circle cx="117" cy="103" r="4" fill="#222"/>
  <circle cx="87" cy="101" r="1.4" fill="white"/>
  <circle cx="119" cy="101" r="1.4" fill="white"/>
  <ellipse cx="68" cy="112" rx="9" ry="5" fill="#F08070" opacity="0.5"/>
  <ellipse cx="132" cy="112" rx="9" ry="5" fill="#F08070" opacity="0.5"/>
  <path d="M90,128Q100,138110,128" fill="none" stroke="#222" stroke-width="2.5" stroke-linecap="round"/>
  <!-- RIGHT arm scratches head -->
  <path d="M146,92Q152,78146,60" stroke="#222" stroke-width="11" stroke-linecap="round" fill="none"/>
  <circle cx="144" cy="55" r="7" fill="#222"/>
  <!-- LEFT arm holds mag -->
  <path d="M54,98Q40,11434,132" stroke="#222" stroke-width="11" stroke-linecap="round" fill="none"/>
  
  <circle cx="28" cy="150" r="20" fill="#D8EEFF" stroke="#444" stroke-width="5"/>
  <circle cx="28" cy="150" r="15" fill="#EAF5FF" opacity="0.8"/>
  <ellipse cx="22" cy="144" rx="5" ry="3" fill="white" opacity="0.5" transform="rotate(-35,22,144)"/>
  <line x1="36" y1="138" x2="50" y2="118" stroke="#3D1F00" stroke-width="8" stroke-linecap="round"/>
  <line x1="36" y1="138" x2="50" y2="118" stroke="#7A4010" stroke-width="4.5" stroke-linecap="round"/>
  
  <path d="M80,162L76,194" stroke="#222" stroke-width="11" stroke-linecap="round" fill="none"/>
  <ellipse cx="72" cy="200" rx="12" ry="6" fill="#222"/>
  <path d="M120,162L124,194" stroke="#222" stroke-width="11" stroke-linecap="round" fill="none"/>
  <ellipse cx="128" cy="200" rx="12" ry="6" fill="#222"/>
</g>
</svg>