<svg xmlns="http://www.w3.org/2000/svg" viewBox="0 0 200 220" width="200" height="220">
<style>
  .b{animation:hyper .35s ease-in-out infinite alternate;transform-origin:100px 86px;transform-box:fill-box}
  .p1{animation:pfloat 1.0s ease-in-out infinite alternate}
  .p2{animation:pfloat 1.0s ease-in-out infinite alternate .35s}
  .p3{animation:pfloat 1.0s ease-in-out infinite alternate .7s}
  .cb{animation:cbob 1.0s ease-in-out infinite alternate}
  @keyframes hyper{0%{transform:rotate(-7deg) scale(1)}100%{transform:rotate(7deg) scale(1.04)}}
  @keyframes pfloat{0%{transform:translate(0,0) rotate(0deg)}100%{transform:translate(-6px,-12px) rotate(-12deg)}}
  @keyframes cbob{0%{transform:translateY(0)}100%{transform:translateY(-8px)}}
</style>
<g class="cb">
  
  <ellipse cx="69" cy="21" rx="21" ry="18" fill="white" stroke="#ccc" stroke-width="1.5"/>
  <ellipse cx="95" cy="21" rx="21" ry="18" fill="white" stroke="#ccc" stroke-width="1.5"/>
  <ellipse cx="82" cy="14" rx="25" ry="18" fill="white" stroke="#ccc" stroke-width="1.5"/>
  
  
  <line x1="82" y1="-3" x2="82" y2="-11" stroke="#FFD700" stroke-width="2.2" stroke-linecap="round"/>
  <line x1="91" y1="4" x2="98" y2="-2" stroke="#FFD700" stroke-width="2" stroke-linecap="round"/>
  <line x1="72" y1="4" x2="65" y2="-2" stroke="#FFD700" stroke-width="2" stroke-linecap="round"/>
  <line x1="99" y1="14" x2="107" y2="14" stroke="#FFD700" stroke-width="2" stroke-linecap="round"/>
  <line x1="65" y1="14" x2="57" y2="14" stroke="#FFD700" stroke-width="2" stroke-linecap="round"/>
  <ellipse cx="82" cy="14" rx="13" ry="14" fill="#FFF8A0" stroke="#DAA000" stroke-width="2.5"/>
  <rect x="76" y="25" width="13" height="3" rx="2" fill="#DAA000"/>
  <rect x="77" y="29" width="11" height="2" rx="2" fill="#DAA000"/>
  <ellipse cx="79" cy="13" rx="2" ry="4" fill="white" opacity="0.4"/>
  <circle cx="118" cy="50" r="4" fill="#ddd"/>
  <circle cx="124" cy="58" r="3" fill="#ddd"/>
</g>
<g class="p1">
  <rect x="10" y="96" width="28" height="22" rx="3" fill="white" stroke="#ccc" stroke-width="1.5" transform="rotate(-15,24,107)"/>
  <text x="18" y="108" font-size="12" fill="#e07090" transform="rotate(-15,24,107)">?</text>
  <text x="30" y="106" font-size="10" fill="#FFD700" transform="rotate(-15,24,107)">💡</text>
</g>
<g class="p2">
  <rect x="162" y="104" width="26" height="20" rx="3" fill="white" stroke="#ccc" stroke-width="1.5" transform="rotate(12,175,114)"/>
  <text x="170" y="116" font-size="10" fill="#4488FF" transform="rotate(12,175,114)">?</text>
</g>
<g class="p3">
  <rect x="22" y="148" width="24" height="18" rx="3" fill="white" stroke="#ccc" stroke-width="1.5" transform="rotate(-8,34,157)"/>
  <text x="30" y="158" font-size="9" fill="#FFD700" transform="rotate(-8,34,157)">💡</text>
</g>
<g class="b">
  
  <path d="M100,30
    C84,24 60,36 54,54
    C48,72 54,88 64,98
    C50,102 44,118 52,134
    C60,148 76,152 90,150
    C96,158 100,162 100,162
    C100,162 104,158 110,150
    C124,152 140,148 148,134
    C156,118 150,102 136,98
    C146,88 152,72 146,54
    C140,36 116,24 100,30 Z"
    fill="#F8C0A0" stroke="#D06040" stroke-width="2.5"/>
  <path d="M100,30C96,4494,5296,62" fill="none" stroke="#D06040" stroke-width="1.7" stroke-linecap="round" opacity="0.6"/>
  <path d="M100,30C104,44106,52104,62" fill="none" stroke="#D06040" stroke-width="1.7" stroke-linecap="round" opacity="0.6"/>
  <path d="M54,54C46,6848,8254,94" fill="none" stroke="#D06040" stroke-width="1.5" stroke-linecap="round" opacity="0.55"/>
  <path d="M146,54C154,68152,82146,94" fill="none" stroke="#D06040" stroke-width="1.5" stroke-linecap="round" opacity="0.55"/>
  <path d="M72,34C64,4662,5866,70" fill="none" stroke="#D06040" stroke-width="1.4" stroke-linecap="round" opacity="0.5"/>
  <path d="M128,34C136,46138,58134,70" fill="none" stroke="#D06040" stroke-width="1.4" stroke-linecap="round" opacity="0.5"/>
  <ellipse cx="100" cy="90" rx="28" ry="32" fill="#FAD0B0" opacity="0.3"/>
  
  <circle cx="84" cy="102" r="8" fill="white" stroke="#222" stroke-width="2"/>
  <circle cx="116" cy="102" r="8" fill="white" stroke="#222" stroke-width="2"/>
  <circle cx="85" cy="103" r="4" fill="#222"/>
  <circle cx="117" cy="103" r="4" fill="#222"/>
  <circle cx="87" cy="101" r="1.4" fill="white"/>
  <circle cx="119" cy="101" r="1.4" fill="white"/>
  <ellipse cx="68" cy="112" rx="9" ry="5" fill="#F08070" opacity="0.5"/>
  <ellipse cx="132" cy="112" rx="9" ry="5" fill="#F08070" opacity="0.5"/>
  
  <path d="M83,126Q100,146117,126" fill="#222"/>
  <path d="M83,126Q100,134117,126" fill="white"/>
  <!-- Both arms out energetically -->
  <path d="M54,94Q38,8228,70" stroke="#222" stroke-width="11" stroke-linecap="round" fill="none"/>
  <path d="M146,92Q158,84162,70" stroke="#222" stroke-width="11" stroke-linecap="round" fill="none"/>
  
  <circle cx="172" cy="58" r="20" fill="#D8EEFF" stroke="#444" stroke-width="5"/>
  <circle cx="172" cy="58" r="15" fill="#EAF5FF" opacity="0.8"/>
  <ellipse cx="166" cy="52" rx="5" ry="3" fill="white" opacity="0.5" transform="rotate(-35,166,52)"/>
  <line x1="161" y1="67" x2="143" y2="83" stroke="#3D1F00" stroke-width="8" stroke-linecap="round"/>
  <line x1="161" y1="67" x2="143" y2="83" stroke="#7A4010" stroke-width="4.5" stroke-linecap="round"/>
  
  <path d="M80,162L76,194" stroke="#222" stroke-width="11" stroke-linecap="round" fill="none"/>
  <ellipse cx="72" cy="200" rx="12" ry="6" fill="#222"/>
  <path d="M120,162L124,194" stroke="#222" stroke-width="11" stroke-linecap="round" fill="none"/>
  <ellipse cx="128" cy="200" rx="12" ry="6" fill="#222"/>
</g>
</svg>