<svg xmlns="http://www.w3.org/2000/svg" viewBox="0 0 200 220" width="200" height="220">
<style>
  .b{animation:float 1.4s ease-in-out infinite alternate}
  .c{animation:pulse 1.4s ease-in-out infinite alternate;transform-origin:100px 22px;transform-box:fill-box}
  @keyframes float{0%{transform:translateY(0) rotate(-2deg)}100%{transform:translateY(-12px) rotate(2deg)}}
  @keyframes pulse{0%{transform:scale(.92)}100%{transform:scale(1.06)}}
</style>
<g class="c">
  
  <ellipse cx="85" cy="22" rx="24" ry="20" fill="white" stroke="#ccc" stroke-width="1.5"/>
  <ellipse cx="115" cy="22" rx="24" ry="20" fill="white" stroke="#ccc" stroke-width="1.5"/>
  <ellipse cx="100" cy="14" rx="29" ry="20" fill="white" stroke="#ccc" stroke-width="1.5"/>
  <text x="100" y="26" text-anchor="middle" font-size="22">💭</text>
  <circle cx="84" cy="52" r="4" fill="#ddd"/>
  <circle cx="78" cy="60" r="3" fill="#ddd"/>
</g>
<g class="b">
  
  <path d="M100,30
    C84,24 60,36 54,54
    C48,72 54,88 64,98
    C50,102 44,118 52,134
    C60,148 76,152 90,150
    C96,158 100,162 100,162
    C100,162 104,158 110,150
    C124,152 140,148 148,134
    C156,118 150,102 136,98
    C146,88 152,72 146,54
    C140,36 116,24 100,30 Z"
    fill="#F8C0A0" stroke="#D06040" stroke-width="2.5"/>
  <path d="M100,30C96,4494,5296,62" fill="none" stroke="#D06040" stroke-width="1.7" stroke-linecap="round" opacity="0.6"/>
  <path d="M100,30C104,44106,52104,62" fill="none" stroke="#D06040" stroke-width="1.7" stroke-linecap="round" opacity="0.6"/>
  <path d="M54,54C46,6848,8254,94" fill="none" stroke="#D06040" stroke-width="1.5" stroke-linecap="round" opacity="0.55"/>
  <path d="M146,54C154,68152,82146,94" fill="none" stroke="#D06040" stroke-width="1.5" stroke-linecap="round" opacity="0.55"/>
  <path d="M72,34C64,4662,5866,70" fill="none" stroke="#D06040" stroke-width="1.4" stroke-linecap="round" opacity="0.5"/>
  <path d="M128,34C136,46138,58134,70" fill="none" stroke="#D06040" stroke-width="1.4" stroke-linecap="round" opacity="0.5"/>
  <ellipse cx="100" cy="90" rx="28" ry="32" fill="#FAD0B0" opacity="0.3"/>
  
  <circle cx="84" cy="100" r="8" fill="white" stroke="#222" stroke-width="2"/>
  <circle cx="116" cy="100" r="8" fill="white" stroke="#222" stroke-width="2"/>
  <circle cx="84" cy="97" r="4" fill="#222"/>
  <circle cx="116" cy="97" r="4" fill="#222"/>
  <circle cx="86" cy="95" r="1.4" fill="white"/>
  <circle cx="118" cy="95" r="1.4" fill="white"/>
  <ellipse cx="68" cy="110" rx="9" ry="5" fill="#F08070" opacity="0.5"/>
  <ellipse cx="132" cy="110" rx="9" ry="5" fill="#F08070" opacity="0.5"/>
  <path d="M90,128Q100,138110,128" fill="none" stroke="#222" stroke-width="2.5" stroke-linecap="round"/>
  <!-- Both arms clasp under chin -->
  <path d="M54,94Q70,12488,134" stroke="#222" stroke-width="11" stroke-linecap="round" fill="none"/>
  <path d="M146,94Q130,124112,134" stroke="#222" stroke-width="11" stroke-linecap="round" fill="none"/>
  <ellipse cx="100" cy="139" rx="18" ry="11" fill="#222"/>
  <!-- Mag glass in clasped hands area -->
  
  <circle cx="100" cy="158" r="17" fill="#D8EEFF" stroke="#444" stroke-width="5"/>
  <circle cx="100" cy="158" r="12" fill="#EAF5FF" opacity="0.8"/>
  <ellipse cx="95" cy="153" rx="4" ry="3" fill="white" opacity="0.5" transform="rotate(-35,95,153)"/>
  <line x1="108" y1="148" x2="124" y2="130" stroke="#3D1F00" stroke-width="8" stroke-linecap="round"/>
  <line x1="108" y1="148" x2="124" y2="130" stroke="#7A4010" stroke-width="4.5" stroke-linecap="round"/>
  
  <path d="M80,162L76,194" stroke="#222" stroke-width="11" stroke-linecap="round" fill="none"/>
  <ellipse cx="72" cy="200" rx="12" ry="6" fill="#222"/>
  <path d="M120,162L124,194" stroke="#222" stroke-width="11" stroke-linecap="round" fill="none"/>
  <ellipse cx="128" cy="200" rx="12" ry="6" fill="#222"/>
</g>
</svg>