<svg xmlns="http://www.w3.org/2000/svg" viewBox="0 0 200 220" width="200" height="220">
<style>
  .b{animation:tilt 1.2s ease-in-out infinite alternate;transform-origin:100px 166px;transform-box:fill-box}
  .q{animation:qfloat 1.2s ease-in-out infinite alternate}
  @keyframes tilt{0%{transform:rotate(-4deg)}100%{transform:rotate(4deg)}}
  @keyframes qfloat{0%{transform:translateY(0)}100%{transform:translateY(-10px)}}
</style>
<g class="q">
  <text x="120" y="26" text-anchor="middle" font-size="40" font-weight="900" fill="#4488FF" font-family="sans-serif">?</text>
</g>
<g class="b">
  
  <path d="M100,30
    C84,24 60,36 54,54
    C48,72 54,88 64,98
    C50,102 44,118 52,134
    C60,148 76,152 90,150
    C96,158 100,162 100,162
    C100,162 104,158 110,150
    C124,152 140,148 148,134
    C156,118 150,102 136,98
    C146,88 152,72 146,54
    C140,36 116,24 100,30 Z"
    fill="#F8C0A0" stroke="#D06040" stroke-width="2.5"/>
  <path d="M100,30C96,4494,5296,62" fill="none" stroke="#D06040" stroke-width="1.7" stroke-linecap="round" opacity="0.6"/>
  <path d="M100,30C104,44106,52104,62" fill="none" stroke="#D06040" stroke-width="1.7" stroke-linecap="round" opacity="0.6"/>
  <path d="M54,54C46,6848,8254,94" fill="none" stroke="#D06040" stroke-width="1.5" stroke-linecap="round" opacity="0.55"/>
  <path d="M146,54C154,68152,82146,94" fill="none" stroke="#D06040" stroke-width="1.5" stroke-linecap="round" opacity="0.55"/>
  <path d="M72,34C64,4662,5866,70" fill="none" stroke="#D06040" stroke-width="1.4" stroke-linecap="round" opacity="0.5"/>
  <path d="M128,34C136,46138,58134,70" fill="none" stroke="#D06040" stroke-width="1.4" stroke-linecap="round" opacity="0.5"/>
  <ellipse cx="100" cy="90" rx="28" ry="32" fill="#FAD0B0" opacity="0.3"/>
  
  <path d="M73,100Q84,9395,100" fill="none" stroke="#222" stroke-width="3" stroke-linecap="round"/>
  <path d="M105,98Q116,91127,100" fill="none" stroke="#222" stroke-width="3" stroke-linecap="round"/>
  <ellipse cx="68" cy="110" rx="9" ry="5" fill="#F08070" opacity="0.5"/>
  <ellipse cx="132" cy="110" rx="9" ry="5" fill="#F08070" opacity="0.5"/>
  <path d="M90,128Q100,138110,128" fill="none" stroke="#222" stroke-width="2.5" stroke-linecap="round"/>
  <!-- RIGHT arm: finger to chin -->
  <path d="M146,94Q158,108158,122" stroke="#222" stroke-width="11" stroke-linecap="round" fill="none"/>
  <circle cx="157" cy="127" r="7" fill="#222"/>
  <!-- LEFT arm holds mag down-left -->
  <path d="M54,98Q40,11038,126" stroke="#222" stroke-width="11" stroke-linecap="round" fill="none"/>
  
  <circle cx="32" cy="144" r="18" fill="#D8EEFF" stroke="#444" stroke-width="5"/>
  <circle cx="32" cy="144" r="13" fill="#EAF5FF" opacity="0.8"/>
  <ellipse cx="26" cy="138" rx="5" ry="3" fill="white" opacity="0.5" transform="rotate(-35,26,138)"/>
  <line x1="39" y1="133" x2="53" y2="114" stroke="#3D1F00" stroke-width="8" stroke-linecap="round"/>
  <line x1="39" y1="133" x2="53" y2="114" stroke="#7A4010" stroke-width="4.5" stroke-linecap="round"/>
  
  <path d="M80,162L76,194" stroke="#222" stroke-width="11" stroke-linecap="round" fill="none"/>
  <ellipse cx="72" cy="200" rx="12" ry="6" fill="#222"/>
  <path d="M120,162L124,194" stroke="#222" stroke-width="11" stroke-linecap="round" fill="none"/>
  <ellipse cx="128" cy="200" rx="12" ry="6" fill="#222"/>
</g>
</svg>