<svg xmlns="http://www.w3.org/2000/svg" viewBox="0 0 200 220" width="200" height="220">
<style>
  .wa{animation:write .5s ease-in-out infinite alternate;transform-origin:54px 100px;transform-box:fill-box}
  .cb{animation:cbob 1.1s ease-in-out infinite alternate}
  @keyframes write{0%{transform:rotate(-16deg) translateX(-5px)}100%{transform:rotate(10deg) translateX(5px)}}
  @keyframes cbob{0%{transform:translateY(0)}100%{transform:translateY(-8px)}}
</style>
<!-- Cloud + bulb above -->
<g class="cb">
  
  <ellipse cx="106" cy="21" rx="22" ry="19" fill="white" stroke="#ccc" stroke-width="1.5"/>
  <ellipse cx="134" cy="21" rx="22" ry="19" fill="white" stroke="#ccc" stroke-width="1.5"/>
  <ellipse cx="120" cy="14" rx="27" ry="19" fill="white" stroke="#ccc" stroke-width="1.5"/>
  
  
  <line x1="120" y1="-4" x2="120" y2="-12" stroke="#FFD700" stroke-width="2.2" stroke-linecap="round"/>
  <line x1="130" y1="3" x2="137" y2="-3" stroke="#FFD700" stroke-width="2" stroke-linecap="round"/>
  <line x1="109" y1="3" x2="102" y2="-3" stroke="#FFD700" stroke-width="2" stroke-linecap="round"/>
  <line x1="138" y1="14" x2="146" y2="14" stroke="#FFD700" stroke-width="2" stroke-linecap="round"/>
  <line x1="102" y1="14" x2="94" y2="14" stroke="#FFD700" stroke-width="2" stroke-linecap="round"/>
  <ellipse cx="120" cy="14" rx="14" ry="15" fill="#FFF8A0" stroke="#DAA000" stroke-width="2.5"/>
  <rect x="113" y="26" width="14" height="3" rx="2" fill="#DAA000"/>
  <rect x="114" y="30" width="12" height="3" rx="2" fill="#DAA000"/>
  <ellipse cx="117" cy="12" rx="2" ry="4" fill="white" opacity="0.4"/>
  <circle cx="92" cy="50" r="4" fill="#ddd"/>
  <circle cx="84" cy="58" r="3" fill="#ddd"/>
</g>
<!-- Scattered papers below (static) -->
<rect x="20" y="188" width="34" height="24" rx="3" fill="white" stroke="#ccc" stroke-width="1.5" transform="rotate(-12,37,200)"/>
<line x1="25" y1="196" x2="50" y2="196" stroke="#eee" stroke-width="1.2" transform="rotate(-12,37,200)"/>
<rect x="148" y="192" width="30" height="22" rx="3" fill="white" stroke="#ccc" stroke-width="1.5" transform="rotate(10,163,203)"/>
<line x1="152" y1="200" x2="174" y2="200" stroke="#eee" stroke-width="1.2" transform="rotate(10,163,203)"/>
<!-- Desk + notebook -->
<rect x="28" y="156" width="144" height="10" rx="4" fill="#C8A070" stroke="#9A7040" stroke-width="1.5"/>
<rect x="36" y="164" width="10" height="32" rx="3" fill="#C8A070"/>
<rect x="154" y="164" width="10" height="32" rx="3" fill="#C8A070"/>
<rect x="46" y="120" width="88" height="56" rx="5" fill="white" stroke="#bbb" stroke-width="2"/>
<rect x="46" y="120" width="14" height="56" rx="4" fill="#FF9AB0"/>
<line x1="66" y1="134" x2="126" y2="134" stroke="#eee" stroke-width="1.5"/>
<line x1="66" y1="144" x2="126" y2="144" stroke="#eee" stroke-width="1.5"/>
<line x1="66" y1="154" x2="120" y2="154" stroke="#eee" stroke-width="1.5"/>
<g>
  
  <path d="M100,30
    C84,24 60,36 54,54
    C48,72 54,88 64,98
    C50,102 44,118 52,134
    C60,148 76,152 90,150
    C96,158 100,162 100,162
    C100,162 104,158 110,150
    C124,152 140,148 148,134
    C156,118 150,102 136,98
    C146,88 152,72 146,54
    C140,36 116,24 100,30 Z"
    fill="#F8C0A0" stroke="#D06040" stroke-width="2.5"/>
  <path d="M100,30C96,4494,5296,62" fill="none" stroke="#D06040" stroke-width="1.7" stroke-linecap="round" opacity="0.6"/>
  <path d="M100,30C104,44106,52104,62" fill="none" stroke="#D06040" stroke-width="1.7" stroke-linecap="round" opacity="0.6"/>
  <path d="M54,54C46,6848,8254,94" fill="none" stroke="#D06040" stroke-width="1.5" stroke-linecap="round" opacity="0.55"/>
  <path d="M146,54C154,68152,82146,94" fill="none" stroke="#D06040" stroke-width="1.5" stroke-linecap="round" opacity="0.55"/>
  <path d="M72,34C64,4662,5866,70" fill="none" stroke="#D06040" stroke-width="1.4" stroke-linecap="round" opacity="0.5"/>
  <path d="M128,34C136,46138,58134,70" fill="none" stroke="#D06040" stroke-width="1.4" stroke-linecap="round" opacity="0.5"/>
  <ellipse cx="100" cy="90" rx="28" ry="32" fill="#FAD0B0" opacity="0.3"/>
  
  <path d="M72,98Q84,10496,98" fill="none" stroke="#222" stroke-width="3" stroke-linecap="round"/>
  <path d="M104,98Q116,104128,98" fill="none" stroke="#222" stroke-width="3" stroke-linecap="round"/>
  <line x1="70" y1="94" x2="94" y2="94" stroke="#222" stroke-width="2" stroke-linecap="round"/>
  <line x1="106" y1="94" x2="130" y2="94" stroke="#222" stroke-width="2" stroke-linecap="round"/>
  <ellipse cx="68" cy="108" rx="9" ry="5" fill="#F08070" opacity="0.4"/>
  <ellipse cx="132" cy="108" rx="9" ry="5" fill="#F08070" opacity="0.4"/>
  <path d="M90,128Q100,138110,128" fill="none" stroke="#222" stroke-width="2.5" stroke-linecap="round"/>
  <!-- RIGHT arm down on desk -->
  <path d="M146,98Q158,124156,146" stroke="#222" stroke-width="11" stroke-linecap="round" fill="none"/>
  <!-- LEFT arm (animated) writing -->
</g>
<g class="wa">
  <path d="M54,100Q44,12850,150" stroke="#222" stroke-width="11" stroke-linecap="round" fill="none"/>
  <rect x="38" y="146" width="9" height="22" rx="2.5" fill="#FFD700" transform="rotate(-28,42,157)"/>
  <polygon points="34,168 38,176 42,168" fill="#E0A040" transform="rotate(-28,38,168)"/>
  <polygon points="36,174 38,179 40,174" fill="#aaa" transform="rotate(-28,38,174)"/>
</g>
<!-- Mag glass held right side -->

  <circle cx="176" cy="134" r="18" fill="#D8EEFF" stroke="#444" stroke-width="5"/>
  <circle cx="176" cy="134" r="13" fill="#EAF5FF" opacity="0.8"/>
  <ellipse cx="170" cy="128" rx="5" ry="3" fill="white" opacity="0.5" transform="rotate(-35,170,128)"/>
  <line x1="167" y1="124" x2="151" y2="106" stroke="#3D1F00" stroke-width="8" stroke-linecap="round"/>
  <line x1="167" y1="124" x2="151" y2="106" stroke="#7A4010" stroke-width="4.5" stroke-linecap="round"/>

  <path d="M80,162L76,194" stroke="#222" stroke-width="11" stroke-linecap="round" fill="none"/>
  <ellipse cx="72" cy="200" rx="12" ry="6" fill="#222"/>
  <path d="M120,162L124,194" stroke="#222" stroke-width="11" stroke-linecap="round" fill="none"/>
  <ellipse cx="128" cy="200" rx="12" ry="6" fill="#222"/>
</svg>